<svg xmlns="http://www.w3.org/2000/svg" width="800" height="1000" viewBox="0 0 800 1000" role="img" aria-label="Body Measurement Tracker">
<rect width="800" height="1000" fill="#fcfcfa"/>
<rect x="24" y="24" width="752" height="952" rx="28" fill="none" stroke="#e2e6df" stroke-width="1.5"/>
<circle cx="64" cy="104" r="5" fill="#db2777"/>
<text x="82" y="109" font-family="Manrope, 'Helvetica Neue', Helvetica, Arial, sans-serif" font-size="15" font-weight="700" fill="#8a938f" letter-spacing="2.4">12+ MEASUREMENTS</text>
<text x="56" y="196" font-family="Manrope, 'Helvetica Neue', Helvetica, Arial, sans-serif" font-size="46" font-weight="800" fill="#18221f" letter-spacing="-1">Body Measurement</text>
<text x="56" y="250" font-family="Manrope, 'Helvetica Neue', Helvetica, Arial, sans-serif" font-size="46" font-weight="800" fill="#18221f" letter-spacing="-1">Tracker</text>
<defs><clipPath id="p7"><rect x="56" y="300" width="688" height="300" rx="20"/></clipPath></defs><rect x="56" y="300" width="688" height="300" rx="20" fill="#ffffff" stroke="#e2e6df" stroke-width="1.5"/><g clip-path="url(#p7)"><text x="88" y="350" font-family="Manrope, 'Helvetica Neue', Helvetica, Arial, sans-serif" font-size="13" font-weight="800" fill="#8a938f" letter-spacing="1.4">CHEST</text><text x="712" y="350" text-anchor="end" font-family="Manrope, 'Helvetica Neue', Helvetica, Arial, sans-serif" font-size="16" font-weight="800" fill="#18221f">104 cm</text><rect x="88" y="362" width="624" height="12" rx="6" fill="#db2777" opacity="0.12"/><rect x="88" y="362" width="536" height="12" rx="6" fill="#db2777" opacity="0.55"/><text x="88" y="416" font-family="Manrope, 'Helvetica Neue', Helvetica, Arial, sans-serif" font-size="13" font-weight="800" fill="#8a938f" letter-spacing="1.4">WAIST</text><text x="712" y="416" text-anchor="end" font-family="Manrope, 'Helvetica Neue', Helvetica, Arial, sans-serif" font-size="16" font-weight="800" fill="#18221f">81 cm</text><rect x="88" y="428" width="624" height="12" rx="6" fill="#db2777" opacity="0.12"/><rect x="88" y="428" width="386" height="12" rx="6" fill="#db2777" opacity="0.65"/><text x="88" y="482" font-family="Manrope, 'Helvetica Neue', Helvetica, Arial, sans-serif" font-size="13" font-weight="800" fill="#8a938f" letter-spacing="1.4">ARMS</text><text x="712" y="482" text-anchor="end" font-family="Manrope, 'Helvetica Neue', Helvetica, Arial, sans-serif" font-size="16" font-weight="800" fill="#18221f">38 cm</text><rect x="88" y="494" width="624" height="12" rx="6" fill="#db2777" opacity="0.12"/><rect x="88" y="494" width="274" height="12" rx="6" fill="#db2777" opacity="0.75"/><text x="88" y="548" font-family="Manrope, 'Helvetica Neue', Helvetica, Arial, sans-serif" font-size="13" font-weight="800" fill="#8a938f" letter-spacing="1.4">THIGHS</text><text x="712" y="548" text-anchor="end" font-family="Manrope, 'Helvetica Neue', Helvetica, Arial, sans-serif" font-size="16" font-weight="800" fill="#18221f">59 cm</text><rect x="88" y="560" width="624" height="12" rx="6" fill="#db2777" opacity="0.12"/><rect x="88" y="560" width="436" height="12" rx="6" fill="#db2777" opacity="0.85"/></g><defs><clipPath id="p8"><rect x="56" y="628" width="688" height="192" rx="20"/></clipPath></defs><rect x="56" y="628" width="688" height="192" rx="20" fill="#ffffff" stroke="#e2e6df" stroke-width="1.5"/><g clip-path="url(#p8)"><path d="M104 770 L200 758 L296 736 L392 742 L488 716 L584 698 L680 676 L680 796 L104 796 Z" fill="#db2777" opacity="0.08"/><path d="M104 770 L200 758 L296 736 L392 742 L488 716 L584 698 L680 676" fill="none" stroke="#db2777" stroke-width="4" stroke-linecap="round" stroke-linejoin="round"/><circle cx="104" cy="770" r="7" fill="#ffffff" stroke="#db2777" stroke-width="4"/><circle cx="200" cy="758" r="7" fill="#ffffff" stroke="#db2777" stroke-width="4"/><circle cx="296" cy="736" r="7" fill="#ffffff" stroke="#db2777" stroke-width="4"/><circle cx="392" cy="742" r="7" fill="#ffffff" stroke="#db2777" stroke-width="4"/><circle cx="488" cy="716" r="7" fill="#ffffff" stroke="#db2777" stroke-width="4"/><circle cx="584" cy="698" r="7" fill="#ffffff" stroke="#db2777" stroke-width="4"/><circle cx="680" cy="676" r="7" fill="#ffffff" stroke="#db2777" stroke-width="4"/><text x="88" y="676" font-family="Manrope, 'Helvetica Neue', Helvetica, Arial, sans-serif" font-size="13" font-weight="800" fill="#db2777" letter-spacing="1.4">WEIGHT TREND — 6 MONTHS</text></g><text x="56" y="936" font-family="Manrope, 'Helvetica Neue', Helvetica, Arial, sans-serif" font-size="14" font-weight="700" fill="#8a938f" letter-spacing="2.6">THE ALPHA MAKER X</text>
<text x="744" y="936" text-anchor="end" font-family="Manrope, 'Helvetica Neue', Helvetica, Arial, sans-serif" font-size="14" font-weight="700" fill="#8a938f" letter-spacing="1.4">.XLSX</text>
</svg>