<svg xmlns="http://www.w3.org/2000/svg" width="800" height="1000" viewBox="0 0 800 1000" role="img" aria-label="Ultimate Fitness Tracker">
<rect width="800" height="1000" fill="#fcfcfa"/>
<rect x="24" y="24" width="752" height="952" rx="28" fill="none" stroke="#e2e6df" stroke-width="1.5"/>
<circle cx="64" cy="104" r="5" fill="#0f9d6e"/>
<text x="82" y="109" font-family="Manrope, 'Helvetica Neue', Helvetica, Arial, sans-serif" font-size="15" font-weight="700" fill="#8a938f" letter-spacing="2.4">ALL-IN-ONE DASHBOARD</text>
<text x="56" y="196" font-family="Manrope, 'Helvetica Neue', Helvetica, Arial, sans-serif" font-size="46" font-weight="800" fill="#18221f" letter-spacing="-1">Ultimate</text>
<text x="56" y="250" font-family="Manrope, 'Helvetica Neue', Helvetica, Arial, sans-serif" font-size="46" font-weight="800" fill="#18221f" letter-spacing="-1">Fitness Tracker</text>
<defs><clipPath id="p1"><rect x="56" y="300" width="688" height="250" rx="20"/></clipPath></defs><rect x="56" y="300" width="688" height="250" rx="20" fill="#ffffff" stroke="#e2e6df" stroke-width="1.5"/><g clip-path="url(#p1)"><rect x="80" y="324" width="148" height="92" rx="14" fill="#0f9d6e" opacity="0.07"/><text x="98" y="356" font-family="Manrope, 'Helvetica Neue', Helvetica, Arial, sans-serif" font-size="12" font-weight="800" fill="#0f9d6e" letter-spacing="1.4">WORKOUTS</text><text x="98" y="394" font-family="Manrope, 'Helvetica Neue', Helvetica, Arial, sans-serif" font-size="30" font-weight="800" fill="#18221f">24</text><rect x="248" y="324" width="148" height="92" rx="14" fill="#0f9d6e" opacity="0.07"/><text x="266" y="356" font-family="Manrope, 'Helvetica Neue', Helvetica, Arial, sans-serif" font-size="12" font-weight="800" fill="#0f9d6e" letter-spacing="1.4">CALORIES</text><text x="266" y="394" font-family="Manrope, 'Helvetica Neue', Helvetica, Arial, sans-serif" font-size="30" font-weight="800" fill="#18221f">2,140</text><rect x="416" y="324" width="148" height="92" rx="14" fill="#0f9d6e" opacity="0.07"/><text x="434" y="356" font-family="Manrope, 'Helvetica Neue', Helvetica, Arial, sans-serif" font-size="12" font-weight="800" fill="#0f9d6e" letter-spacing="1.4">SLEEP</text><text x="434" y="394" font-family="Manrope, 'Helvetica Neue', Helvetica, Arial, sans-serif" font-size="30" font-weight="800" fill="#18221f">7.4h</text><rect x="584" y="324" width="148" height="92" rx="14" fill="#0f9d6e" opacity="0.07"/><text x="602" y="356" font-family="Manrope, 'Helvetica Neue', Helvetica, Arial, sans-serif" font-size="12" font-weight="800" fill="#0f9d6e" letter-spacing="1.4">WATER</text><text x="602" y="394" font-family="Manrope, 'Helvetica Neue', Helvetica, Arial, sans-serif" font-size="30" font-weight="800" fill="#18221f">3.2L</text><rect x="80" y="488" width="52" height="34" rx="8" fill="#0f9d6e" opacity="0.35"/><rect x="174" y="464" width="52" height="58" rx="8" fill="#0f9d6e" opacity="0.44"/><rect x="268" y="476" width="52" height="46" rx="8" fill="#0f9d6e" opacity="0.53"/><rect x="362" y="444" width="52" height="78" rx="8" fill="#0f9d6e" opacity="0.62"/><rect x="456" y="456" width="52" height="66" rx="8" fill="#0f9d6e" opacity="0.71"/><rect x="550" y="430" width="52" height="92" rx="8" fill="#0f9d6e" opacity="0.80"/><rect x="644" y="450" width="52" height="72" rx="8" fill="#0f9d6e" opacity="0.89"/><line x1="72" y1="524" x2="728" y2="524" stroke="#e2e6df" stroke-width="1.5"/></g><defs><clipPath id="p2"><rect x="56" y="578" width="688" height="242" rx="20"/></clipPath></defs><rect x="56" y="578" width="688" height="242" rx="20" fill="#ffffff" stroke="#e2e6df" stroke-width="1.5"/><g clip-path="url(#p2)"><rect x="57" y="579" width="686" height="44" rx="0" fill="#0f9d6e" opacity="0.08"/><text x="88" y="607" font-family="Manrope, 'Helvetica Neue', Helvetica, Arial, sans-serif" font-size="14" font-weight="800" fill="#0f9d6e" letter-spacing="1.2">EXERCISE</text><text x="240" y="607" font-family="Manrope, 'Helvetica Neue', Helvetica, Arial, sans-serif" font-size="14" font-weight="800" fill="#0f9d6e" letter-spacing="1.2">SETS</text><text x="392" y="607" font-family="Manrope, 'Helvetica Neue', Helvetica, Arial, sans-serif" font-size="14" font-weight="800" fill="#0f9d6e" letter-spacing="1.2">WEIGHT</text><text x="544" y="607" font-family="Manrope, 'Helvetica Neue', Helvetica, Arial, sans-serif" font-size="14" font-weight="800" fill="#0f9d6e" letter-spacing="1.2">PR</text><rect x="57" y="623" width="686" height="46" fill="#0f9d6e" opacity="0.025"/><line x1="57" y1="669" x2="743" y2="669" stroke="#e2e6df" stroke-width="1"/><rect x="88" y="640" width="96" height="11" rx="5.5" fill="#18221f" opacity="0.16"/><rect x="240" y="640" width="34" height="11" rx="5.5" fill="#18221f" opacity="0.16"/><rect x="392" y="640" width="52" height="11" rx="5.5" fill="#18221f" opacity="0.16"/><rect x="544" y="640" width="26" height="11" rx="5.5" fill="#18221f" opacity="0.16"/><line x1="57" y1="715" x2="743" y2="715" stroke="#e2e6df" stroke-width="1"/><rect x="88" y="686" width="74" height="11" rx="5.5" fill="#18221f" opacity="0.16"/><rect x="240" y="686" width="34" height="11" rx="5.5" fill="#18221f" opacity="0.16"/><rect x="392" y="686" width="44" height="11" rx="5.5" fill="#18221f" opacity="0.16"/><rect x="544" y="686" width="26" height="11" rx="5.5" fill="#18221f" opacity="0.16"/><rect x="57" y="715" width="686" height="46" fill="#0f9d6e" opacity="0.025"/><line x1="57" y1="761" x2="743" y2="761" stroke="#e2e6df" stroke-width="1"/><rect x="88" y="732" width="108" height="11" rx="5.5" fill="#18221f" opacity="0.16"/><rect x="240" y="732" width="34" height="11" rx="5.5" fill="#18221f" opacity="0.16"/><rect x="392" y="732" width="48" height="11" rx="5.5" fill="#18221f" opacity="0.16"/><rect x="544" y="732" width="26" height="11" rx="5.5" fill="#18221f" opacity="0.16"/><line x1="57" y1="807" x2="743" y2="807" stroke="#e2e6df" stroke-width="1"/><rect x="88" y="778" width="82" height="11" rx="5.5" fill="#18221f" opacity="0.16"/><rect x="240" y="778" width="34" height="11" rx="5.5" fill="#18221f" opacity="0.16"/><rect x="392" y="778" width="56" height="11" rx="5.5" fill="#18221f" opacity="0.16"/><rect x="544" y="778" width="26" height="11" rx="5.5" fill="#18221f" opacity="0.16"/></g><text x="56" y="936" font-family="Manrope, 'Helvetica Neue', Helvetica, Arial, sans-serif" font-size="14" font-weight="700" fill="#8a938f" letter-spacing="2.6">THE ALPHA MAKER X</text>
<text x="744" y="936" text-anchor="end" font-family="Manrope, 'Helvetica Neue', Helvetica, Arial, sans-serif" font-size="14" font-weight="700" fill="#8a938f" letter-spacing="1.4">.XLSX</text>
</svg>